<svg xmlns="http://www.w3.org/2000/svg" viewBox="0 0 295.74 231.91"><defs><style>.cls-1{fill:#014268;}.cls-2{fill:#fe2c4f;}</style></defs><title>Ресурс 1</title><g id="Слой_2" data-name="Слой 2"><g id="Слой_1-2" data-name="Слой 1"><polygon class="cls-1" points="10.47 198.21 0 231.91 17.75 231.91 28.09 198.21 10.47 198.21"/><polygon class="cls-1" points="45.57 198.21 35.11 231.91 52.85 231.91 63.19 198.21 45.57 198.21"/><polygon class="cls-1" points="68.55 198.21 58.09 231.91 75.83 231.91 86.17 198.21 68.55 198.21"/><polygon class="cls-1" points="103.66 198.21 93.19 231.91 110.94 231.91 121.28 198.21 103.66 198.21"/><polygon class="cls-1" points="127.02 198.21 116.55 231.91 134.3 231.91 144.64 198.21 127.02 198.21"/><polygon class="cls-1" points="162.13 198.21 151.66 231.91 169.4 231.91 179.75 198.21 162.13 198.21"/><polygon class="cls-1" points="184.6 198.21 174.13 231.91 191.87 231.91 202.21 198.21 184.6 198.21"/><polygon class="cls-1" points="219.7 198.21 209.23 231.91 226.98 231.91 237.32 198.21 219.7 198.21"/><rect class="cls-1" x="16.98" y="210.72" width="30.13" height="8.68"/><rect class="cls-1" x="78.13" y="198.21" width="30.13" height="8.68"/><rect class="cls-1" x="137.36" y="198.21" width="30.13" height="8.68"/><rect class="cls-1" x="128.68" y="223.23" width="30.13" height="8.68"/><rect class="cls-1" x="194.17" y="198.21" width="30.13" height="8.68"/><rect class="cls-1" x="191.62" y="210.72" width="30.13" height="8.68"/><polygon class="cls-2" points="27.45 139.46 295.75 0 70.19 196.57 86.17 139.91 27.45 139.46"/><path class="cls-1" d="M260.87,23.77l-181.31,158L91,141.27l1.78-6.3-6.55-.05-38.6-.3L260.87,23.77M295.74,0,27.45,139.46l58.72.45-16,56.66L295.74,0Z"/></g></g></svg>