<svg xmlns="http://www.w3.org/2000/svg" width="123" height="40" viewBox="0 0 123 40" fill="none">
<path d="M60.4117 14.038C60.6796 13.4765 60.9809 12.8158 61.2823 12.0892C61.5837 11.3625 61.8516 10.6028 62.153 9.81007C62.4209 9.01734 62.6888 8.2246 62.9232 7.43187C63.1576 6.63914 63.3586 5.87943 63.526 5.18579H64.832C64.5976 6.14368 64.3297 7.06853 64.0283 7.96036C63.7269 8.88521 63.4255 9.77704 63.0907 10.6358C62.7558 11.5277 62.4209 12.3534 62.0526 13.1792C61.6842 14.0049 61.3493 14.7647 61.0144 15.4583H59.7754C59.407 14.7316 59.0722 13.9719 58.7038 13.1792C58.3354 12.3865 58.0005 11.5277 57.6657 10.6358C57.3308 9.74401 57.0294 8.85218 56.728 7.96036C56.4266 7.0355 56.1587 6.11065 55.9243 5.18579H57.3308C57.4982 5.87943 57.6992 6.63914 57.9336 7.43187C58.168 8.2246 58.4359 9.01734 58.7038 9.81007C58.9717 10.6028 59.2731 11.3625 59.5745 12.0892C59.8424 12.8158 60.1438 13.4765 60.4117 14.038Z" fill="black"/>
<path d="M68.2478 15.4583H66.9418V5.15277H68.2478V15.4583Z" fill="black"/>
<path d="M81.107 15.128C80.7052 15.2601 80.2029 15.3922 79.6001 15.4913C78.9973 15.6235 78.2271 15.6565 77.2895 15.6565C76.5192 15.6565 75.816 15.5244 75.2132 15.2931C74.577 15.0619 74.0412 14.6986 73.6058 14.2362C73.1705 13.7737 72.8021 13.2122 72.5677 12.5516C72.3333 11.891 72.1993 11.1313 72.1993 10.3055C72.1993 9.5128 72.2998 8.81916 72.5007 8.15855C72.7017 7.49794 73.003 6.93642 73.4049 6.44096C73.8067 5.97853 74.3091 5.58216 74.8783 5.31792C75.4476 5.05367 76.1174 4.92155 76.8876 4.92155C77.5574 4.92155 78.1601 5.02064 78.6624 5.21883C79.1648 5.41701 79.5331 5.58216 79.7675 5.78035V0.231214L81.0735 0V15.128H81.107ZM79.7675 7.03551C79.6336 6.93642 79.4996 6.83732 79.2987 6.73823C79.1313 6.63914 78.8969 6.54005 78.6624 6.44096C78.428 6.34187 78.1601 6.2758 77.8587 6.20974C77.5908 6.14368 77.2895 6.11065 76.9546 6.11065C76.3183 6.11065 75.7825 6.20974 75.3137 6.44096C74.8783 6.67217 74.51 6.96945 74.2421 7.33278C73.9742 7.69612 73.7733 8.15855 73.6728 8.65401C73.5388 9.14946 73.5054 9.71098 73.5054 10.2725C73.5054 11.6268 73.8402 12.6507 74.5435 13.3774C75.2132 14.104 76.1509 14.4674 77.256 14.4674C77.8922 14.4674 78.428 14.4344 78.8299 14.3683C79.2317 14.3022 79.5331 14.2362 79.734 14.1701V7.03551H79.7675Z" fill="black"/>
<path d="M84.3552 10.3055C84.3552 9.41371 84.4892 8.62098 84.7571 7.96037C85.025 7.29976 85.3599 6.73824 85.7952 6.27581C86.2305 5.81338 86.6994 5.48308 87.2352 5.2849C87.771 5.05368 88.3403 4.95459 88.9095 4.95459C90.1821 4.95459 91.2202 5.35096 91.9569 6.17672C92.7271 7.00248 93.0955 8.25765 93.0955 9.97523C93.0955 10.0743 93.0955 10.1734 93.0955 10.3055C93.0955 10.4046 93.062 10.5037 93.062 10.6028H85.7282C85.7617 11.858 86.0966 12.8159 86.6659 13.5095C87.2686 14.1701 88.2063 14.5335 89.4788 14.5335C90.1821 14.5335 90.7514 14.4674 91.1867 14.3353C91.5886 14.2031 91.8899 14.1041 92.0909 14.005L92.3253 15.128C92.1244 15.2271 91.7895 15.3592 91.2537 15.4913C90.7514 15.6235 90.1151 15.7225 89.4119 15.7225C88.5077 15.7225 87.704 15.5904 87.0677 15.3262C86.4315 15.0619 85.8957 14.6986 85.4603 14.2031C85.0585 13.7407 84.7571 13.1462 84.5562 12.4856C84.4222 11.7919 84.3552 11.0652 84.3552 10.3055ZM91.756 9.47978C91.7225 8.38977 91.4881 7.564 90.9858 6.96945C90.4835 6.3749 89.8137 6.07763 88.943 6.07763C88.4742 6.07763 88.0389 6.17672 87.6705 6.34187C87.3021 6.54006 86.9673 6.77127 86.6994 7.10158C86.4315 7.39885 86.197 7.76219 86.0631 8.19158C85.8957 8.58795 85.8287 9.05038 85.7952 9.47978H91.756Z" fill="black"/>
<path d="M105.352 10.3055C105.352 11.1313 105.218 11.858 104.984 12.5186C104.749 13.1792 104.414 13.7407 103.979 14.2031C103.544 14.6656 103.041 15.0289 102.472 15.2931C101.903 15.5574 101.267 15.6895 100.563 15.6895C99.86 15.6895 99.2238 15.5574 98.6545 15.2931C98.0852 15.0289 97.5829 14.6656 97.1475 14.2031C96.7122 13.7407 96.3773 13.1792 96.1429 12.5186C95.9085 11.858 95.7745 11.1313 95.7745 10.3055C95.7745 9.47977 95.875 8.75309 96.1429 8.09248C96.3773 7.43187 96.7122 6.87035 97.1475 6.37489C97.5829 5.91247 98.0852 5.54913 98.6545 5.28489C99.2238 5.02064 99.86 4.88852 100.563 4.88852C101.267 4.88852 101.903 5.02064 102.472 5.28489C103.041 5.54913 103.544 5.91247 103.979 6.37489C104.414 6.83732 104.716 7.39884 104.984 8.09248C105.218 8.75309 105.352 9.5128 105.352 10.3055ZM103.946 10.3055C103.946 9.01734 103.644 7.99339 103.041 7.23369C102.439 6.47399 101.601 6.07762 100.563 6.07762C99.5251 6.07762 98.7214 6.47399 98.0852 7.23369C97.4824 7.99339 97.181 9.01734 97.181 10.3055C97.181 11.5937 97.4824 12.6177 98.0852 13.3774C98.688 14.1371 99.5251 14.5004 100.563 14.5004C101.601 14.5004 102.405 14.1371 103.041 13.3774C103.644 12.6177 103.946 11.5937 103.946 10.3055Z" fill="black"/>
<path d="M67.0087 22.3947C67.4105 22.2957 67.9128 22.1635 68.5491 22.0314C69.1854 21.8993 69.9891 21.8332 70.9937 21.8332C72.2997 21.8332 73.2709 22.1966 73.8736 22.9563C73.9406 22.8902 74.0746 22.8241 74.2755 22.692C74.4764 22.5599 74.7108 22.4278 75.0122 22.2956C75.3136 22.1635 75.6485 22.0644 76.0503 21.9653C76.4522 21.8663 76.8875 21.8332 77.3563 21.8332C78.16 21.8332 78.7963 21.9653 79.2986 22.1966C79.8009 22.4278 80.1693 22.7581 80.4372 23.1875C80.7051 23.6169 80.8725 24.1123 80.973 24.6738C81.0735 25.2684 81.1069 25.896 81.1069 26.5896V32.3369H79.8009V26.986C79.8009 26.3254 79.7674 25.7308 79.7005 25.2354C79.6335 24.7399 79.533 24.3105 79.3321 24.0132C79.1647 23.6829 78.8968 23.4517 78.5619 23.2866C78.227 23.1214 77.7917 23.0223 77.2559 23.0223C76.854 23.0223 76.4857 23.0554 76.1508 23.1214C75.8159 23.1875 75.548 23.2866 75.2801 23.3857C75.0457 23.4848 74.8448 23.5838 74.6773 23.716C74.5099 23.8151 74.4094 23.9141 74.3425 23.9472C74.4764 24.2775 74.5434 24.6738 74.6104 25.1032C74.6773 25.5326 74.7108 25.9951 74.7108 26.4575V32.3039H73.4048V26.986C73.4048 26.3254 73.3713 25.7308 73.3043 25.2354C73.2374 24.7399 73.1034 24.3105 72.936 24.0132C72.735 23.6829 72.4671 23.4517 72.1323 23.2866C71.7974 23.1214 71.3286 23.0223 70.7593 23.0223C70.123 23.0223 69.5872 23.0554 69.1519 23.1214C68.7165 23.1875 68.4486 23.2535 68.3147 23.2866V32.3369H67.0087V22.3947Z" fill="black"/>
<path d="M87.6036 21.8002C88.2734 21.8002 88.8762 21.8993 89.345 22.0975C89.8138 22.2957 90.2157 22.5599 90.5171 22.8902C90.8185 23.2205 91.0194 23.6169 91.1533 24.0793C91.2873 24.5417 91.3543 25.0372 91.3543 25.5987V32.0727C91.2203 32.1057 91.0194 32.1718 90.785 32.2048C90.5171 32.2379 90.2492 32.3039 89.8808 32.37C89.5459 32.436 89.1776 32.4691 88.7757 32.5021C88.3739 32.5351 87.9385 32.5682 87.5032 32.5682C86.9674 32.5682 86.4316 32.5021 85.9628 32.403C85.4939 32.2709 85.0921 32.1057 84.7572 31.8415C84.4223 31.5772 84.1544 31.2469 83.9535 30.8506C83.7526 30.4542 83.6521 29.9587 83.6521 29.3642C83.6521 28.8027 83.7526 28.3402 83.987 27.9439C84.2214 27.5475 84.4893 27.2172 84.8911 26.953C85.293 26.6887 85.7618 26.4905 86.2976 26.3914C86.8334 26.2593 87.4362 26.2263 88.039 26.2263C88.2399 26.2263 88.4408 26.2263 88.6418 26.2593C88.8427 26.2924 89.0436 26.2924 89.2445 26.3254C89.4455 26.3584 89.6129 26.3914 89.7469 26.4245C89.8808 26.4575 89.9813 26.4905 90.0482 26.5236V25.896C90.0482 25.5327 90.0148 25.2023 89.9813 24.839C89.9143 24.5087 89.8138 24.2114 89.6129 23.9142C89.4455 23.6499 89.1776 23.4187 88.8427 23.2535C88.5078 23.0884 88.0725 22.9893 87.5367 22.9893C86.7664 22.9893 86.1972 23.0554 85.8288 23.1545C85.4604 23.2535 85.1925 23.3526 84.9916 23.4187L84.8242 22.2957C85.0586 22.1966 85.3935 22.0975 85.8958 21.9984C86.3311 21.8663 86.9339 21.8002 87.6036 21.8002ZM87.7041 31.4121C88.2064 31.4121 88.6752 31.4121 89.0436 31.346C89.412 31.313 89.7468 31.28 90.0147 31.2139V27.5805C89.8808 27.5145 89.6464 27.4484 89.3115 27.3824C88.9766 27.3163 88.5413 27.2833 87.972 27.2833C87.6371 27.2833 87.3023 27.3163 86.9674 27.3493C86.6325 27.3824 86.2976 27.4815 85.9962 27.6466C85.6948 27.8118 85.4604 28.0099 85.2595 28.2742C85.0586 28.5384 84.9916 28.9018 84.9916 29.3312C84.9916 29.7275 85.0586 30.0248 85.1925 30.3221C85.3265 30.5863 85.4939 30.7845 85.7283 30.9497C85.9627 31.1148 86.2306 31.2139 86.5655 31.313C86.9339 31.3791 87.3023 31.4121 87.7041 31.4121Z" fill="black"/>
<path d="M95.942 22.0314H100.094V23.1214H95.942V28.6045C95.942 29.199 96.009 29.6615 96.1094 30.0248C96.2099 30.3881 96.3438 30.6854 96.5448 30.8836C96.7457 31.0818 96.9466 31.2139 97.2145 31.28C97.4824 31.346 97.7838 31.379 98.1187 31.379C98.6545 31.379 99.1233 31.313 99.4582 31.1809C99.7931 31.0487 100.061 30.9496 100.262 30.8175L100.597 31.9075C100.396 32.0397 100.094 32.1718 99.5922 32.3039C99.1233 32.4691 98.621 32.5351 98.0517 32.5351C97.4155 32.5351 96.8797 32.436 96.4108 32.2709C95.9755 32.1057 95.6406 31.8415 95.3727 31.5112C95.1048 31.1809 94.9374 30.7515 94.8034 30.256C94.703 29.7605 94.636 29.166 94.636 28.4724V19.0256L95.942 18.7944V22.0314Z" fill="black"/>
<path d="M106.055 21.8332C106.491 21.8332 106.892 21.8663 107.261 21.9323C107.629 21.9984 107.897 22.0644 108.064 22.1305L107.797 23.2535C107.696 23.1875 107.462 23.1544 107.127 23.0884C106.792 23.0223 106.357 22.9893 105.821 22.9893C105.252 22.9893 104.816 23.0223 104.448 23.1214C104.113 23.1875 103.879 23.2535 103.778 23.3196V32.3369H102.472V22.5269C102.807 22.3947 103.276 22.2296 103.879 22.0644C104.481 21.9323 105.218 21.8332 106.055 21.8332Z" fill="black"/>
<path d="M111.38 32.3369H110.074V22.0314H111.38V32.3369Z" fill="black"/>
<path d="M118.111 27.9769C117.809 28.3072 117.508 28.7036 117.24 29.0669C116.939 29.4633 116.671 29.8266 116.369 30.19C116.102 30.5533 115.834 30.9497 115.633 31.313C115.398 31.6763 115.231 32.0397 115.063 32.3039H113.69C114.26 31.28 114.862 30.3551 115.465 29.4963C116.102 28.6375 116.738 27.7787 117.408 26.953L113.891 21.9984H115.432L118.144 25.896L120.857 21.9984H122.297L118.848 26.8869C119.149 27.2502 119.45 27.6466 119.785 28.076C120.12 28.5054 120.455 28.9348 120.79 29.3972C121.125 29.8597 121.46 30.3221 121.761 30.8175C122.062 31.313 122.364 31.8085 122.632 32.2709H121.225C121.058 31.9736 120.857 31.6433 120.656 31.313C120.421 30.9497 120.187 30.5863 119.886 30.223C119.584 29.8597 119.316 29.4633 119.015 29.0669C118.68 28.7036 118.379 28.3402 118.111 27.9769Z" fill="black"/>
<path d="M59.1391 32.37L41.826 5.05368L37.0373 12.6177L32.2151 5.05368L14.902 32.37L2.41111 12.6177L0 16.4162L14.902 39.9339L32.2151 12.6177L34.6262 16.4162L24.5129 32.37H59.1391ZM31.8467 28.3402L37.0038 20.1817L42.1944 28.3402H31.8467ZM46.9831 28.3402L39.4149 16.4162L41.826 12.6177L41.5581 12.2213L51.7718 28.3402H46.9831Z" fill="url(#paint0_linear)"/>
<path d="M24.8478 39.934H24.446V35.0785H24.8478V39.934Z" fill="black"/>
<path d="M27.3259 36.3336V36.9612C27.3929 36.8621 27.4599 36.763 27.5603 36.6969C27.6273 36.5978 27.7278 36.5318 27.8282 36.4657C27.9287 36.3997 28.0292 36.3666 28.1631 36.3336C28.2971 36.3006 28.3975 36.3006 28.5315 36.3006C28.6989 36.3006 28.8664 36.3336 29.0338 36.3666C29.2012 36.3997 29.3017 36.4988 29.4022 36.5978C29.5026 36.6969 29.5696 36.8291 29.6366 36.9942C29.7035 37.1594 29.7035 37.3575 29.7035 37.5888V39.9339H29.3017V37.5888C29.3017 37.3906 29.2682 37.2585 29.2347 37.1263C29.2012 36.9942 29.1343 36.8951 29.0673 36.8291C29.0003 36.763 28.8998 36.6969 28.7994 36.6639C28.6989 36.6309 28.565 36.6309 28.431 36.6309C28.2971 36.6309 28.1631 36.6639 28.0292 36.6969C27.8952 36.73 27.7948 36.796 27.7278 36.8951C27.6273 36.9612 27.5603 37.0603 27.4934 37.1594C27.4264 37.2585 27.3594 37.3575 27.3259 37.4897V39.967H26.9241V36.3336H27.3259Z" fill="black"/>
<path d="M31.4784 38.1173C31.4784 37.853 31.5119 37.5888 31.5789 37.3576C31.6458 37.1263 31.7463 36.9282 31.8468 36.763C31.9807 36.5978 32.1147 36.4657 32.2821 36.3997C32.4495 36.3006 32.6505 36.2675 32.8849 36.2675C33.1528 36.2675 33.3537 36.3336 33.5546 36.4327C33.7556 36.5318 33.8895 36.6639 34.0235 36.8621V34.8472H34.4253V39.967H34.0569L34.0235 39.4715C33.8895 39.6367 33.7556 39.7688 33.5546 39.8679C33.3537 39.967 33.1528 40 32.8849 40C32.6839 40 32.483 39.967 32.3156 39.8679C32.1481 39.7688 31.9807 39.6367 31.8802 39.5045C31.7463 39.3394 31.6793 39.1412 31.6123 38.91C31.5454 38.6788 31.5119 38.4476 31.5119 38.1503V38.1173H31.4784ZM31.8802 38.1833C31.8802 38.3815 31.9137 38.5797 31.9472 38.7779C31.9807 38.943 32.0477 39.1082 32.1481 39.2403C32.2486 39.3724 32.3491 39.4715 32.483 39.5706C32.617 39.6367 32.7844 39.6697 32.9519 39.6697C33.0858 39.6697 33.2198 39.6697 33.3202 39.6367C33.4207 39.6036 33.5211 39.5706 33.6216 39.5045C33.7221 39.4385 33.789 39.3724 33.856 39.3064C33.923 39.2403 33.99 39.1412 34.0235 39.0421V37.3245C33.99 37.2254 33.923 37.1594 33.8895 37.0603C33.8225 36.9612 33.7556 36.8951 33.6886 36.8291C33.5881 36.763 33.4877 36.6969 33.3872 36.6639C33.2867 36.6309 33.1528 36.5978 32.9853 36.5978C32.7844 36.5978 32.6505 36.6309 32.5165 36.6969C32.3826 36.763 32.2821 36.8951 32.1816 37.0272C32.0812 37.1594 32.0142 37.3245 31.9807 37.4897C31.9472 37.6879 31.9137 37.853 31.9137 38.0842V38.1833H31.8802Z" fill="black"/>
<path d="M38.7117 39.4715C38.6113 39.6367 38.4438 39.7688 38.2429 39.8679C38.042 39.967 37.8076 40 37.5397 40C37.3722 40 37.2048 39.967 37.0373 39.9339C36.9034 39.8679 36.7694 39.8018 36.669 39.7027C36.5685 39.6036 36.4681 39.4385 36.4346 39.2733C36.3676 39.1082 36.3341 38.877 36.3341 38.6458V36.3336H36.736V38.6458C36.736 38.8439 36.7694 39.0091 36.8029 39.1412C36.8364 39.2733 36.9034 39.3724 36.9704 39.4385C37.0373 39.5046 37.1378 39.5706 37.2383 39.6036C37.3387 39.6367 37.4392 39.6697 37.5731 39.6697C37.7406 39.6697 37.8745 39.6367 38.0085 39.6036C38.1424 39.5706 38.2429 39.5046 38.3434 39.4385C38.4438 39.3724 38.5108 39.3064 38.5778 39.2073C38.6447 39.1082 38.6782 39.0091 38.7117 38.91V36.3336H39.1136V39.9339H38.7117V39.4715Z" fill="black"/>
<path d="M43.1991 39.0421C43.1991 38.9761 43.1991 38.91 43.1656 38.8109C43.1321 38.7449 43.0986 38.6788 43.0317 38.6127C42.9647 38.5467 42.8642 38.4806 42.7303 38.4145C42.5963 38.3485 42.4289 38.3155 42.228 38.2494C42.027 38.2164 41.8596 38.1503 41.6922 38.1173C41.5247 38.0512 41.3908 37.9851 41.2903 37.9191C41.1899 37.853 41.0894 37.7539 41.0559 37.6218C40.9889 37.5227 40.9554 37.3906 40.9554 37.2254C40.9554 37.0933 40.9889 36.9612 41.0559 36.8291C41.1229 36.697 41.1899 36.5979 41.3238 36.4988C41.4243 36.3997 41.5582 36.3336 41.7257 36.3006C41.8931 36.2345 42.0605 36.2345 42.2615 36.2345C42.4624 36.2345 42.6633 36.2676 42.8307 36.3006C42.9982 36.3667 43.1321 36.4327 43.2661 36.5318C43.3665 36.6309 43.467 36.73 43.534 36.8621C43.601 36.9942 43.6345 37.1264 43.6345 37.2915H43.1991C43.1991 37.1924 43.1656 37.0933 43.1321 37.0273C43.0987 36.9282 43.0317 36.8621 42.9647 36.796C42.8977 36.73 42.7973 36.6639 42.6633 36.6309C42.5294 36.5979 42.3954 36.5648 42.2615 36.5648C42.094 36.5648 41.9601 36.5979 41.8596 36.6309C41.7591 36.6639 41.6587 36.73 41.5917 36.763C41.5247 36.8291 41.4578 36.8951 41.4243 36.9612C41.3908 37.0273 41.3908 37.1264 41.3908 37.1924C41.3908 37.2585 41.3908 37.3576 41.4243 37.4236C41.4578 37.4897 41.4912 37.5558 41.5582 37.6218C41.6252 37.6879 41.7257 37.7209 41.8596 37.787C41.9936 37.82 42.161 37.8861 42.3619 37.9191C42.5963 37.9851 42.7638 38.0182 42.9312 38.0842C43.0986 38.1503 43.2326 38.2164 43.3331 38.3155C43.4335 38.4145 43.5005 38.5136 43.5675 38.6127C43.6345 38.7118 43.6345 38.8439 43.6345 39.0091C43.6345 39.1742 43.601 39.3064 43.534 39.4055C43.467 39.5376 43.3665 39.6367 43.2661 39.7358C43.1321 39.8349 42.9982 39.9009 42.8307 39.934C42.6633 39.967 42.4624 40 42.2615 40C42.027 40 41.8261 39.967 41.6587 39.9009C41.4912 39.8349 41.3238 39.7688 41.2233 39.6697C41.0894 39.5706 41.0224 39.4385 40.9554 39.3394C40.8885 39.2073 40.855 39.0752 40.855 38.943H41.2568C41.2568 39.0752 41.2903 39.2073 41.3573 39.3064C41.4243 39.4055 41.4912 39.4715 41.5917 39.5376C41.6922 39.6036 41.7926 39.6367 41.9266 39.6697C42.0605 39.7027 42.161 39.7027 42.2615 39.7027C42.4289 39.7027 42.5628 39.6697 42.6633 39.6367C42.7973 39.6036 42.8642 39.5376 42.9647 39.5046C43.0317 39.4385 43.0987 39.3724 43.1321 39.3064C43.1991 39.2073 43.1991 39.1082 43.1991 39.0421Z" fill="black"/>
<path d="M46.012 35.4088V36.3336H46.7822V36.6639H46.012V39.0751C46.012 39.2073 46.012 39.3064 46.0454 39.3724C46.0789 39.4385 46.1124 39.5045 46.1459 39.5376C46.1794 39.5706 46.2464 39.6036 46.3133 39.6367C46.3803 39.6367 46.4473 39.6697 46.4808 39.6697C46.5478 39.6697 46.6147 39.6697 46.6482 39.6697C46.7152 39.6697 46.7487 39.6697 46.8157 39.6367L46.8491 39.967C46.8157 40 46.7487 40 46.6482 40C46.5812 40 46.4808 40 46.4138 40C46.3133 40 46.1794 40 46.0789 39.967C45.9785 39.9339 45.9115 39.9009 45.811 39.8018C45.7441 39.7358 45.6771 39.6367 45.6436 39.5045C45.6101 39.3724 45.5766 39.2403 45.5766 39.0421V36.6639H44.9069V36.3336H45.5766V35.4088H46.012Z" fill="black"/>
<path d="M50.1979 36.6639C50.0975 36.6639 50.0305 36.6309 49.93 36.6309C49.7961 36.6309 49.6621 36.6639 49.5617 36.6969C49.4612 36.73 49.3608 36.796 49.2603 36.8621C49.1598 36.9282 49.0929 37.0273 49.0594 37.1263C48.9924 37.2254 48.9589 37.3245 48.9254 37.4566V39.9339H48.5236V36.3336H48.9254V36.8951C49.0259 36.6969 49.1598 36.5318 49.3273 36.4327C49.4947 36.3336 49.6956 36.2675 49.9635 36.2675C49.997 36.2675 50.064 36.2675 50.131 36.2675C50.1979 36.2675 50.2314 36.3006 50.2314 36.3006L50.1979 36.6639Z" fill="black"/>
<path d="M51.6714 35.2766C51.6714 35.2106 51.7049 35.1445 51.7384 35.0785C51.7718 35.0124 51.8723 35.0124 51.9393 35.0124C52.0063 35.0124 52.1067 35.0454 52.1402 35.0785C52.2072 35.1445 52.2072 35.2106 52.2072 35.2766C52.2072 35.3427 52.1737 35.4088 52.1402 35.4748C52.0732 35.5409 52.0063 35.5409 51.9393 35.5409C51.8723 35.5409 51.7718 35.5078 51.7384 35.4748C51.7049 35.4418 51.6714 35.3757 51.6714 35.2766ZM52.1402 39.9339H51.7384V36.3336H52.1402V39.9339Z" fill="black"/>
<path d="M56.4266 39.9339C56.3931 39.8679 56.3931 39.8018 56.3596 39.7027C56.3596 39.6036 56.3261 39.5046 56.3261 39.4385C56.2592 39.5046 56.1922 39.6036 56.1252 39.6697C56.0582 39.7358 55.9578 39.8018 55.8573 39.8349C55.7569 39.9009 55.6229 39.9339 55.5224 39.967C55.3885 40 55.2545 40 55.1206 40C54.9532 40 54.7857 39.967 54.6183 39.9339C54.4843 39.8679 54.3504 39.8018 54.2499 39.7027C54.1495 39.6036 54.0825 39.5045 54.0155 39.3724C53.9485 39.2403 53.915 39.1082 53.915 38.9761C53.915 38.8109 53.9485 38.6458 54.0155 38.5136C54.0825 38.3815 54.2164 38.2494 54.3504 38.1503C54.4843 38.0512 54.6853 37.9851 54.8862 37.9191C55.0871 37.853 55.3215 37.853 55.5894 37.853H56.3261V37.4567C56.3261 37.1924 56.2592 36.9942 56.0917 36.8621C55.9243 36.73 55.6899 36.6309 55.3885 36.6309C55.2545 36.6309 55.1206 36.6639 54.9866 36.697C54.8527 36.73 54.7522 36.796 54.6853 36.8621C54.5848 36.9282 54.5178 36.9942 54.4843 37.0933C54.4508 37.1924 54.4174 37.2915 54.4174 37.3906H54.0155C54.0155 37.2585 54.049 37.1264 54.116 36.9942C54.1829 36.8621 54.2834 36.763 54.4174 36.6639C54.5513 36.5648 54.6853 36.4988 54.8527 36.4327C55.0201 36.3666 55.2211 36.3336 55.422 36.3336C55.6229 36.3336 55.7903 36.3666 55.9578 36.3997C56.1252 36.4327 56.2592 36.5318 56.3931 36.6309C56.5271 36.73 56.594 36.8621 56.661 36.9942C56.728 37.1264 56.7615 37.3245 56.7615 37.5227V39.2733C56.7615 39.3394 56.7615 39.4055 56.7615 39.4715C56.7615 39.5376 56.7615 39.6036 56.795 39.6697C56.795 39.7358 56.8285 39.8018 56.8285 39.8349C56.8285 39.9009 56.8619 39.9339 56.8619 39.967V40H56.4266V39.9339ZM55.1541 39.6697C55.288 39.6697 55.422 39.6367 55.5559 39.6036C55.6899 39.5706 55.7903 39.5046 55.8908 39.4385C55.9913 39.3724 56.0917 39.3064 56.1587 39.2073C56.2257 39.1082 56.2927 39.0421 56.3261 38.943V38.1503H55.6229C55.422 38.1503 55.2211 38.1833 55.0536 38.2164C54.8862 38.2494 54.7522 38.3154 54.6518 38.3815C54.5513 38.4476 54.4508 38.5467 54.3839 38.6458C54.3169 38.7448 54.2834 38.8439 54.2834 38.9761C54.2834 39.0752 54.3169 39.1742 54.3504 39.2403C54.3839 39.3394 54.4508 39.4055 54.5178 39.4715C54.5848 39.5376 54.6853 39.5706 54.7857 39.6367C54.9197 39.6367 55.0201 39.6697 55.1541 39.6697Z" fill="black"/>
<path d="M59.1392 39.9339H58.7373V34.8142H59.1392V39.9339Z" fill="black"/>
<path d="M65.3678 36.3336V36.9282C65.4348 36.8291 65.5017 36.73 65.5687 36.6639C65.6357 36.5979 65.7362 36.4988 65.8366 36.4658C65.9371 36.3997 66.0375 36.3667 66.1715 36.3336C66.3054 36.3006 66.4059 36.3006 66.5399 36.3006C66.8078 36.3006 67.0422 36.3667 67.2431 36.4658C67.444 36.5648 67.578 36.763 67.645 36.9942C67.7119 36.8951 67.7789 36.7961 67.8459 36.73C67.9129 36.6309 68.0133 36.5648 68.1138 36.4988C68.2142 36.4327 68.3482 36.3997 68.4487 36.3667C68.5826 36.3336 68.7166 36.3006 68.8505 36.3006C69.0514 36.3006 69.2189 36.3336 69.3528 36.3667C69.4868 36.4327 69.6207 36.4988 69.7212 36.5979C69.8216 36.697 69.8886 36.8291 69.9556 36.9942C70.0226 37.1594 70.0226 37.3576 70.0226 37.5888V39.934H69.6207V37.5888C69.6207 37.3906 69.5872 37.2255 69.5537 37.1264C69.5203 36.9942 69.4533 36.8951 69.3863 36.8291C69.3193 36.763 69.2189 36.697 69.1184 36.6639C69.0179 36.6309 68.884 36.6309 68.75 36.6309C68.5826 36.6309 68.4152 36.6639 68.3147 36.73C68.1808 36.7961 68.0803 36.8621 67.9798 36.9612C67.8794 37.0603 67.8124 37.1594 67.7789 37.2585C67.7454 37.3576 67.7119 37.4897 67.6784 37.5888V39.967H67.3101V37.5888C67.3101 37.4236 67.2766 37.2585 67.2431 37.1264C67.2096 36.9942 67.1426 36.8951 67.0757 36.8291C67.0087 36.763 66.9082 36.697 66.8078 36.6639C66.7073 36.6309 66.5733 36.6309 66.4394 36.6309C66.272 36.6309 66.138 36.6639 66.0375 36.697C65.9036 36.73 65.8031 36.7961 65.7362 36.8951C65.6357 36.9612 65.5687 37.0603 65.5352 37.1594C65.4683 37.2585 65.4348 37.3576 65.4013 37.4897V39.967H64.9659V36.3336H65.3678Z" fill="black"/>
<path d="M74.3089 39.9339C74.2754 39.8679 74.2755 39.8018 74.242 39.7027C74.242 39.6036 74.2085 39.5046 74.2085 39.4385C74.1415 39.5046 74.0745 39.6036 74.0076 39.6697C73.9406 39.7358 73.8401 39.8018 73.7396 39.8349C73.6392 39.9009 73.5052 39.9339 73.4048 39.967C73.2708 40 73.1369 40 73.0029 40C72.8355 40 72.668 39.967 72.5006 39.9339C72.3667 39.8679 72.2327 39.8018 72.1322 39.7027C72.0318 39.6036 71.9648 39.5045 71.8978 39.3724C71.8309 39.2403 71.7974 39.1082 71.7974 38.9761C71.7974 38.8109 71.8309 38.6458 71.8978 38.5136C71.9648 38.3815 72.0988 38.2494 72.2327 38.1503C72.3667 38.0512 72.5676 37.9851 72.7685 37.9191C72.9694 37.853 73.2038 37.853 73.4717 37.853H74.2085V37.4567C74.2085 37.1924 74.1415 36.9942 73.9741 36.8621C73.8066 36.73 73.5722 36.6309 73.2708 36.6309C73.1369 36.6309 73.0029 36.6639 72.869 36.697C72.735 36.73 72.6346 36.796 72.5676 36.8621C72.4671 36.9282 72.4001 36.9942 72.3667 37.0933C72.3332 37.1924 72.2997 37.2915 72.2997 37.3906H71.8978C71.8978 37.2585 71.9313 37.1264 71.9983 36.9942C72.0653 36.8621 72.1657 36.763 72.2997 36.6639C72.4336 36.5648 72.5676 36.4988 72.735 36.4327C72.9025 36.3666 73.1034 36.3336 73.3043 36.3336C73.5052 36.3336 73.6727 36.3666 73.8401 36.3997C74.0076 36.4327 74.1415 36.5318 74.2755 36.6309C74.4094 36.73 74.4764 36.8621 74.5434 36.9942C74.6103 37.1264 74.6438 37.3245 74.6438 37.5227V39.2733C74.6438 39.3394 74.6438 39.4055 74.6438 39.4715C74.6438 39.5376 74.6438 39.6036 74.6773 39.6697C74.6773 39.7358 74.7108 39.8018 74.7108 39.8349C74.7108 39.9009 74.7443 39.9339 74.7443 39.967V40H74.3089V39.9339ZM73.0364 39.6697C73.1704 39.6697 73.3043 39.6367 73.4383 39.6036C73.5722 39.5706 73.6727 39.5046 73.7731 39.4385C73.8736 39.3724 73.9741 39.3064 74.041 39.2073C74.108 39.1082 74.175 39.0421 74.2085 38.943V38.1503H73.5052C73.3043 38.1503 73.1034 38.1833 72.9359 38.2164C72.7685 38.2494 72.6346 38.3154 72.5341 38.3815C72.4336 38.4476 72.3332 38.5467 72.2662 38.6458C72.1992 38.7448 72.1657 38.8439 72.1657 38.9761C72.1657 39.0752 72.1992 39.1742 72.2327 39.2403C72.2662 39.3394 72.3332 39.4055 72.4001 39.4715C72.4671 39.5376 72.5676 39.5706 72.668 39.6367C72.802 39.6367 72.9025 39.6697 73.0364 39.6697Z" fill="black"/>
<path d="M77.9257 39.6697C78.0597 39.6697 78.1936 39.6367 78.2941 39.6036C78.428 39.5706 78.5285 39.5045 78.5955 39.4385C78.6959 39.3724 78.7629 39.2733 78.8299 39.1742C78.8969 39.0751 78.9303 38.943 78.9303 38.8109H79.3322C79.3322 38.9761 79.2652 39.1412 79.1983 39.2733C79.1313 39.4055 79.0308 39.5376 78.8969 39.6367C78.7629 39.7358 78.629 39.8348 78.4615 39.8679C78.2941 39.9339 78.1266 39.967 77.9257 39.967C77.6578 39.967 77.4569 39.9339 77.256 39.8348C77.055 39.7358 76.8876 39.6036 76.7537 39.4385C76.6197 39.2733 76.5192 39.0751 76.4523 38.877C76.3853 38.6457 76.3518 38.4145 76.3518 38.1833V38.0512C76.3518 37.787 76.3853 37.5557 76.4523 37.3576C76.5192 37.1263 76.6197 36.9612 76.7537 36.796C76.8876 36.6309 77.055 36.4988 77.256 36.3997C77.4569 36.3006 77.6913 36.2675 77.9257 36.2675C78.1266 36.2675 78.2941 36.3006 78.4615 36.3666C78.629 36.4327 78.7629 36.4988 78.8969 36.6309C79.0308 36.73 79.1313 36.8621 79.1983 37.0272C79.2652 37.1924 79.2987 37.3576 79.3322 37.5557H78.9303C78.9303 37.4236 78.8969 37.2915 78.8299 37.1594C78.7629 37.0273 78.6959 36.9282 78.5955 36.8621C78.495 36.796 78.3945 36.73 78.2606 36.6639C78.1266 36.6309 78.0262 36.5979 77.8587 36.5979C77.6578 36.5979 77.4569 36.6309 77.3229 36.73C77.189 36.796 77.055 36.9282 76.9546 37.0603C76.8541 37.1924 76.7871 37.3576 76.7537 37.5227C76.7202 37.6879 76.6867 37.886 76.6867 38.0842V38.2164C76.6867 38.4145 76.7202 38.5797 76.7537 38.7779C76.7871 38.943 76.8541 39.1082 76.9546 39.2403C77.055 39.3724 77.1555 39.4715 77.3229 39.5706C77.5239 39.6367 77.7248 39.6697 77.9257 39.6697Z" fill="black"/>
<path d="M81.4083 36.9282C81.4753 36.8291 81.5423 36.73 81.6427 36.6639C81.7097 36.5648 81.8102 36.4988 81.9106 36.4657C82.0111 36.3997 82.1116 36.3666 82.2455 36.3336C82.346 36.3006 82.4799 36.3006 82.6139 36.3006C82.7813 36.3006 82.9488 36.3336 83.1162 36.3666C83.2501 36.3997 83.3841 36.4988 83.4846 36.5978C83.585 36.6969 83.652 36.8291 83.719 36.9942C83.7859 37.1594 83.7859 37.3576 83.7859 37.5888V39.9339H83.3841V37.5888C83.3841 37.3906 83.3506 37.2585 83.3171 37.1263C83.2836 36.9942 83.2167 36.8951 83.1497 36.8291C83.0827 36.763 82.9822 36.6969 82.8818 36.6639C82.7813 36.6309 82.6474 36.6309 82.5134 36.6309C82.3795 36.6309 82.2455 36.6639 82.1116 36.6969C82.0111 36.73 81.8772 36.796 81.8102 36.8951C81.7097 36.9612 81.6427 37.0603 81.5758 37.1594C81.5088 37.2585 81.4418 37.3576 81.4083 37.4897V39.967H81.0065V34.8472H81.4083V36.9282Z" fill="black"/>
<path d="M85.6613 35.2766C85.6613 35.2106 85.6947 35.1445 85.7282 35.0785C85.7617 35.0124 85.8287 35.0124 85.9292 35.0124C86.0296 35.0124 86.0966 35.0454 86.1301 35.0785C86.1971 35.1445 86.197 35.2106 86.197 35.2766C86.197 35.3427 86.1636 35.4088 86.1301 35.4748C86.0631 35.5409 85.9961 35.5409 85.9292 35.5409C85.8287 35.5409 85.7617 35.5078 85.7282 35.4748C85.6947 35.4418 85.6613 35.3757 85.6613 35.2766ZM86.1301 39.9339H85.7282V36.3336H86.1301V39.9339Z" fill="black"/>
<path d="M88.4742 36.3336V36.9612C88.5412 36.8621 88.6082 36.763 88.7087 36.697C88.8091 36.6309 88.8761 36.5318 88.9766 36.4658C89.077 36.3997 89.1775 36.3667 89.3114 36.3336C89.4454 36.3006 89.5458 36.3006 89.6798 36.3006C89.8472 36.3006 90.0147 36.3336 90.1821 36.3667C90.3161 36.3997 90.45 36.4988 90.5505 36.5979C90.6509 36.697 90.7179 36.8291 90.7849 36.9942C90.8519 37.1594 90.8519 37.3576 90.8519 37.5888V39.934H90.45V37.5888C90.45 37.3906 90.4165 37.2585 90.383 37.1264C90.3495 36.9942 90.2826 36.8951 90.2156 36.8291C90.1486 36.763 90.0482 36.697 89.9477 36.6639C89.8472 36.6309 89.7133 36.6309 89.5793 36.6309C89.4454 36.6309 89.3114 36.6639 89.1775 36.697C89.0435 36.73 88.9431 36.7961 88.8761 36.8951C88.7756 36.9612 88.7087 37.0603 88.6417 37.1594C88.5747 37.2585 88.5412 37.3576 88.4742 37.4897V39.967H88.0724V36.3336H88.4742Z" fill="black"/>
<path d="M94.2006 40C93.9662 40 93.7318 39.967 93.5309 39.8679C93.3299 39.7688 93.1625 39.6697 92.9951 39.5045C92.8611 39.3394 92.7272 39.1742 92.6602 38.943C92.5932 38.7118 92.5262 38.4806 92.5262 38.2164V38.0842C92.5262 37.82 92.5597 37.5557 92.6602 37.3245C92.7607 37.0933 92.8611 36.8951 92.9951 36.763C93.129 36.5979 93.2965 36.4657 93.4974 36.3997C93.6983 36.3006 93.8992 36.2675 94.1002 36.2675C94.3346 36.2675 94.5355 36.3006 94.7029 36.3997C94.8704 36.4657 95.0378 36.5979 95.1718 36.73C95.3057 36.8621 95.3727 37.0603 95.4397 37.2585C95.5066 37.4566 95.5401 37.6879 95.5401 37.9191V38.1503H92.9281V38.2164C92.9281 38.4145 92.9616 38.6127 93.0286 38.7779C93.0955 38.943 93.1625 39.1082 93.2965 39.2403C93.3969 39.3724 93.5309 39.4715 93.6983 39.5376C93.8657 39.6036 94.0332 39.6367 94.2006 39.6367C94.4016 39.6367 94.6025 39.6036 94.7699 39.5045C94.9374 39.4385 95.0713 39.3064 95.2053 39.1412L95.4732 39.3394C95.4062 39.4385 95.3392 39.5045 95.2722 39.5706C95.2053 39.6367 95.1048 39.7027 95.0043 39.7688C94.9039 39.8349 94.7699 39.8679 94.636 39.9009C94.502 40 94.3681 40 94.2006 40ZM94.1337 36.5979C93.9662 36.5979 93.8323 36.6309 93.6983 36.6969C93.5644 36.763 93.4639 36.8291 93.3634 36.9282C93.263 37.0273 93.196 37.1594 93.129 37.3245C93.0621 37.4897 93.0286 37.6548 92.9951 37.82H95.2053V37.787C95.2053 37.6218 95.1718 37.4897 95.1383 37.3576C95.1048 37.2254 95.0378 37.0933 94.9374 36.9942C94.8369 36.8951 94.7364 36.796 94.6025 36.73C94.435 36.6309 94.3011 36.5979 94.1337 36.5979Z" fill="black"/>
<path d="M103.209 39.4055L104.314 36.3336H104.716L103.343 39.9339H103.008L101.635 36.3336H102.037L103.209 39.4055Z" fill="black"/>
<path d="M106.256 35.2766C106.256 35.2106 106.29 35.1445 106.323 35.0785C106.357 35.0124 106.424 35.0124 106.524 35.0124C106.625 35.0124 106.692 35.0454 106.725 35.0785C106.792 35.1445 106.792 35.2106 106.792 35.2766C106.792 35.3427 106.759 35.4088 106.725 35.4748C106.658 35.5409 106.591 35.5409 106.524 35.5409C106.424 35.5409 106.357 35.5078 106.323 35.4748C106.29 35.4418 106.256 35.3757 106.256 35.2766ZM106.725 39.9339H106.323V36.3336H106.725V39.9339Z" fill="black"/>
<path d="M110.878 39.0421C110.878 38.9761 110.878 38.91 110.844 38.8109C110.811 38.7448 110.777 38.6788 110.71 38.6127C110.643 38.5467 110.543 38.4806 110.409 38.4145C110.275 38.3485 110.107 38.3155 109.906 38.2494C109.705 38.2164 109.538 38.1503 109.371 38.1173C109.203 38.0512 109.069 37.9851 108.969 37.9191C108.868 37.853 108.768 37.7539 108.734 37.6218C108.667 37.5227 108.634 37.3906 108.634 37.2254C108.634 37.0933 108.667 36.9612 108.734 36.8291C108.801 36.697 108.868 36.5979 109.002 36.4988C109.103 36.3997 109.237 36.3336 109.404 36.3006C109.572 36.2345 109.739 36.2345 109.94 36.2345C110.141 36.2345 110.342 36.2676 110.509 36.3006C110.677 36.3667 110.811 36.4327 110.945 36.5318C111.045 36.6309 111.145 36.73 111.212 36.8621C111.279 36.9942 111.313 37.1264 111.313 37.2915H110.911C110.911 37.1924 110.878 37.0933 110.844 37.0273C110.811 36.9282 110.744 36.8621 110.677 36.796C110.61 36.73 110.509 36.6639 110.375 36.6309C110.241 36.5979 110.107 36.5648 109.973 36.5648C109.806 36.5648 109.672 36.5979 109.572 36.6309C109.471 36.6639 109.371 36.73 109.304 36.763C109.237 36.8291 109.17 36.8951 109.136 36.9612C109.103 37.0273 109.103 37.1264 109.103 37.1924C109.103 37.2585 109.103 37.3576 109.136 37.4236C109.17 37.4897 109.203 37.5558 109.27 37.6218C109.337 37.6879 109.438 37.7209 109.572 37.787C109.705 37.82 109.873 37.8861 110.074 37.9191C110.308 37.9851 110.476 38.0182 110.643 38.0842C110.811 38.1503 110.945 38.2164 111.045 38.3155C111.145 38.4145 111.212 38.5136 111.279 38.6127C111.346 38.7118 111.346 38.8439 111.346 39.0091C111.346 39.1742 111.313 39.3064 111.246 39.4055C111.179 39.5376 111.078 39.6367 110.978 39.7358C110.844 39.8349 110.71 39.9009 110.543 39.9339C110.375 39.967 110.174 40 109.973 40C109.739 40 109.538 39.967 109.371 39.9009C109.203 39.8349 109.036 39.7688 108.935 39.6697C108.801 39.5706 108.734 39.4385 108.667 39.3394C108.6 39.2073 108.567 39.0752 108.567 38.943H108.969C108.969 39.0752 109.002 39.2073 109.069 39.3064C109.136 39.4055 109.203 39.4715 109.304 39.5376C109.404 39.6036 109.505 39.6367 109.638 39.6697C109.772 39.7027 109.873 39.7027 109.973 39.7027C110.141 39.7027 110.275 39.6697 110.375 39.6367C110.509 39.6036 110.576 39.5376 110.677 39.5045C110.744 39.4385 110.811 39.3724 110.844 39.3064C110.878 39.2403 110.878 39.1082 110.878 39.0421Z" fill="black"/>
<path d="M113.054 35.2766C113.054 35.2106 113.088 35.1445 113.121 35.0785C113.155 35.0124 113.222 35.0124 113.322 35.0124C113.423 35.0124 113.49 35.0454 113.523 35.0785C113.59 35.1445 113.59 35.2106 113.59 35.2766C113.59 35.3427 113.557 35.4088 113.523 35.4748C113.456 35.5409 113.389 35.5409 113.322 35.5409C113.222 35.5409 113.155 35.5078 113.121 35.4748C113.088 35.4418 113.054 35.3757 113.054 35.2766ZM113.523 39.9339H113.121V36.3336H113.523V39.9339Z" fill="black"/>
<path d="M115.264 38.0842C115.264 37.82 115.298 37.5888 115.365 37.3576C115.432 37.1264 115.566 36.9282 115.7 36.7961C115.834 36.6309 116.001 36.4988 116.202 36.4327C116.403 36.3336 116.637 36.3006 116.872 36.3006C117.106 36.3006 117.341 36.3336 117.542 36.4327C117.742 36.5318 117.91 36.6639 118.044 36.7961C118.178 36.9612 118.312 37.1594 118.379 37.3576C118.446 37.5888 118.479 37.82 118.479 38.0842V38.1833C118.479 38.4476 118.446 38.6788 118.379 38.91C118.312 39.1412 118.178 39.3394 118.044 39.4715C117.91 39.6367 117.742 39.7688 117.542 39.8349C117.341 39.934 117.106 39.967 116.872 39.967C116.637 39.967 116.403 39.934 116.202 39.8349C116.001 39.7358 115.834 39.6037 115.7 39.4715C115.566 39.3064 115.432 39.1082 115.365 38.91C115.298 38.6788 115.264 38.4476 115.264 38.1833V38.0842ZM115.666 38.1833C115.666 38.3815 115.7 38.5797 115.733 38.7449C115.8 38.91 115.867 39.0752 115.968 39.2073C116.068 39.3394 116.202 39.4385 116.369 39.5376C116.537 39.6037 116.704 39.6697 116.905 39.6697C117.106 39.6697 117.274 39.6367 117.441 39.5376C117.609 39.4715 117.709 39.3394 117.809 39.2073C117.91 39.0752 117.977 38.91 118.044 38.7449C118.111 38.5797 118.111 38.3815 118.111 38.1833V38.0842C118.111 37.8861 118.077 37.6879 118.044 37.5227C117.977 37.3576 117.91 37.1924 117.809 37.0603C117.709 36.9282 117.575 36.8291 117.408 36.73C117.24 36.6639 117.073 36.5979 116.872 36.5979C116.671 36.5979 116.503 36.6309 116.336 36.73C116.169 36.7961 116.068 36.9282 115.968 37.0603C115.867 37.1924 115.8 37.3576 115.733 37.5227C115.666 37.6879 115.666 37.8861 115.666 38.0842V38.1833Z" fill="black"/>
<path d="M120.622 36.3336V36.9612C120.689 36.8621 120.756 36.763 120.857 36.697C120.924 36.5979 121.024 36.5318 121.125 36.4658C121.225 36.3997 121.326 36.3667 121.46 36.3336C121.56 36.3006 121.694 36.3006 121.828 36.3006C121.995 36.3006 122.163 36.3336 122.33 36.3667C122.464 36.3997 122.598 36.4988 122.699 36.5979C122.799 36.697 122.866 36.8291 122.933 36.9942C123 37.1594 123 37.3576 123 37.5888V39.934H122.598V37.5888C122.598 37.3906 122.565 37.2585 122.531 37.1264C122.498 36.9942 122.431 36.8951 122.364 36.8291C122.297 36.763 122.196 36.697 122.096 36.6639C121.995 36.6309 121.861 36.6309 121.727 36.6309C121.593 36.6309 121.459 36.6639 121.326 36.697C121.225 36.73 121.091 36.7961 121.024 36.8951C120.924 36.9612 120.857 37.0603 120.79 37.1594C120.723 37.2585 120.656 37.3576 120.622 37.4897V39.967H120.22V36.3336H120.622Z" fill="black"/>
<defs>
<linearGradient id="paint0_linear" x1="-3.72888" y1="22.067" x2="40.681" y2="22.6795" gradientUnits="userSpaceOnUse">
<stop stop-color="#BE1E2D"/>
<stop offset="1" stop-color="#2B3990"/>
</linearGradient>
</defs>
</svg>