<svg xmlns="http://www.w3.org/2000/svg" viewBox="0 0 148.04 101.41"><defs><style>.cls-1{fill:#ec050e;}</style></defs><title>Ресурс 1</title><g id="Слой_2" data-name="Слой 2"><g id="Слой_1-2" data-name="Слой 1"><path class="cls-1" d="M9.16,0H53C64,.68,68.55,9.17,68.15,22.4a67.41,67.41,0,0,1-2.66,17.54c-1.89,6.24-7.27,8.76-13.68,8.85-3.31.05-6.63,0-11.22,0,8,7.93,14.55,16.39,26,16.23,3,0,9.34,0,9.34,0l8.62,11.06s-14.53-.07-20.36,0A26,26,0,0,1,45.53,69c-6.47-6-12.59-12.36-18.9-18.54-2.63-2.57-4-5.9-2.71-9.25,1-2.61,4.54-2.91,7.71-2.83,4.64.12,9.48.29,14.14.09,4.44-.19,7-2.63,7.68-7.06A41.83,41.83,0,0,0,54,26.92c.55-12.8-1.88-15.37-14.47-15.37-6,0-12,0-18,0S14.19,13,14.17,19c-.05,17,0,34,0,51v6H0V8C0,5.43,1.78-.09,9.16,0Z"/><path class="cls-1" d="M146,0V11.55H127.93c-5,0-10,0-15,0-12.4.15-18.47,4.84-19.7,17.13a99.31,99.31,0,0,0,.91,23.79c1.2,8.3,6.56,12.35,14.94,12.67,6.48.24,13,.07,19.48.08,3.6,0,5.64-1.52,5.52-5.41-.1-3.45,0-6.91,0-10.91H120.55V39.16H148V60.27c0,15-.9,15.88-15.75,15.88-9,0-18,.06-27,0C91.56,76,81.57,68.57,79.82,55a132.09,132.09,0,0,1-.23-31.73C81.09,10.29,91.56,0,105,0Z"/><path d="M6.12,94.56H2.28v6.62H.11V84.81H5.53a6.4,6.4,0,0,1,4.25,1.26,4.5,4.5,0,0,1,1.49,3.66,4.43,4.43,0,0,1-.82,2.67,5,5,0,0,1-2.3,1.7l3.84,7v.13H9.68ZM2.28,92.79H5.59A3.75,3.75,0,0,0,8.15,92a2.8,2.8,0,0,0,.95-2.23,3,3,0,0,0-.9-2.33,3.82,3.82,0,0,0-2.62-.82H2.28Z"/><path d="M26.89,93.52a10.09,10.09,0,0,1-.81,4.2,6.11,6.11,0,0,1-2.29,2.74,6.33,6.33,0,0,1-3.47,1,6.26,6.26,0,0,1-3.42-1,6.33,6.33,0,0,1-2.33-2.71,9.87,9.87,0,0,1-.85-4.08V92.49a10,10,0,0,1,.83-4.17,6.06,6.06,0,0,1,5.75-3.73,6.3,6.3,0,0,1,3.47,1,6.11,6.11,0,0,1,2.31,2.75,10.15,10.15,0,0,1,.81,4.2Zm-2.15-1A7.35,7.35,0,0,0,23.57,88a3.85,3.85,0,0,0-3.27-1.56A3.81,3.81,0,0,0,17.08,88a7.2,7.2,0,0,0-1.21,4.32v1.2A7.36,7.36,0,0,0,17.06,98a3.81,3.81,0,0,0,3.26,1.61,3.79,3.79,0,0,0,3.24-1.52,7.26,7.26,0,0,0,1.18-4.37Z"/><path d="M34.64,93l4.27-8.22h2.45L35.72,95.08v6.1H33.56v-6.1L27.91,84.81h2.48Z"/><path d="M51.46,96.9H44.6l-1.54,4.28H40.83l6.25-16.37H49l6.27,16.37H53Zm-6.21-1.77h5.57L48,87.47Z"/><path d="M59.61,99.42h7.76v1.76H57.44V84.81h2.17Z"/><path d="M87.62,99a5,5,0,0,1-2.32,1.79,9.48,9.48,0,0,1-3.47.59,6.75,6.75,0,0,1-3.55-.94,6.23,6.23,0,0,1-2.4-2.67,9.29,9.29,0,0,1-.88-4V92.35a8.62,8.62,0,0,1,1.73-5.73,6,6,0,0,1,4.85-2,6.23,6.23,0,0,1,4.13,1.3,5.74,5.74,0,0,1,1.91,3.72H85.46a3.57,3.57,0,0,0-3.87-3.26,3.83,3.83,0,0,0-3.29,1.53,7.46,7.46,0,0,0-1.13,4.41v1.34A7,7,0,0,0,78.43,98a4.08,4.08,0,0,0,3.41,1.63A7.55,7.55,0,0,0,84,99.37a3.29,3.29,0,0,0,1.5-.91V94.79H81.68V93h5.94Z"/><path d="M97.22,94.56H93.38v6.62H91.21V84.81h5.42a6.4,6.4,0,0,1,4.25,1.26,4.5,4.5,0,0,1,1.49,3.66,4.43,4.43,0,0,1-.82,2.67,5,5,0,0,1-2.3,1.7l3.84,7v.13h-2.32Zm-3.84-1.77h3.31A3.75,3.75,0,0,0,99.25,92a2.84,2.84,0,0,0,1-2.23,3,3,0,0,0-.9-2.33,3.82,3.82,0,0,0-2.62-.82h-3.3Z"/><path d="M118,93.52a10.09,10.09,0,0,1-.81,4.2,6.06,6.06,0,0,1-2.3,2.74,6.72,6.72,0,0,1-6.89,0,6.37,6.37,0,0,1-2.32-2.71,9.87,9.87,0,0,1-.85-4.08V92.49a10.11,10.11,0,0,1,.82-4.17,6.09,6.09,0,0,1,5.76-3.73,6.3,6.3,0,0,1,3.47,1,6.11,6.11,0,0,1,2.31,2.75,10.15,10.15,0,0,1,.81,4.2Zm-2.15-1A7.35,7.35,0,0,0,114.67,88a3.85,3.85,0,0,0-3.27-1.56A3.81,3.81,0,0,0,108.18,88,7.13,7.13,0,0,0,107,92.32v1.2A7.36,7.36,0,0,0,108.16,98a4.16,4.16,0,0,0,6.5.09,7.33,7.33,0,0,0,1.18-4.37Z"/><path d="M132.75,84.81V95.94a5.19,5.19,0,0,1-1.45,3.79,5.89,5.89,0,0,1-3.92,1.65l-.58,0a6.16,6.16,0,0,1-4.28-1.45,5.24,5.24,0,0,1-1.62-4V84.81H123V95.9a3.73,3.73,0,0,0,1,2.76,4.48,4.48,0,0,0,5.59,0,3.72,3.72,0,0,0,1-2.75V84.81Z"/><path d="M138.32,94.77v6.41h-2.16V84.81h6a6.1,6.1,0,0,1,4.21,1.37,4.68,4.68,0,0,1,1.52,3.63,4.58,4.58,0,0,1-1.49,3.67,6.32,6.32,0,0,1-4.27,1.29Zm0-1.76h3.88a3.89,3.89,0,0,0,2.65-.82,3,3,0,0,0,.92-2.36,3,3,0,0,0-.92-2.34,3.6,3.6,0,0,0-2.53-.91h-4Z"/></g></g></svg>