<svg width="150" height="25" viewBox="0 0 150 25" fill="none" xmlns="http://www.w3.org/2000/svg">
	<g clip-path="url(#clip0)" fill="#ffffff">
	<path d="M11.7165 23.8137C18.1873 23.8137 23.4329 18.5681 23.4329 12.0973C23.4329 5.62644 18.1873 0.380798 11.7165 0.380798C5.24564 0.380798 0 5.62644 0 12.0973C0 18.5681 5.24564 23.8137 11.7165 23.8137Z" fill="#ff0000"></path>
	<path d="M39.8066 0.497955C42.1792 0.497955 44.1417 1.25953 45.7234 2.78267C47.3051 4.30581 48.1253 6.26831 48.1253 8.6409C48.1253 11.0135 47.3344 12.976 45.7234 14.4991C44.1124 16.0223 42.1792 16.7838 39.8066 16.7838H36.7017V23.7551H30.7556V0.497955H39.8066ZM39.8066 11.1306C41.1247 11.1306 42.1792 10.1055 42.1792 8.6409C42.1792 7.17634 41.154 6.18044 39.8066 6.18044H36.7017V11.1306H39.8066Z" fill="#ffffff"></path>
	<path d="M68.4239 23.7551H61.7748L58.1135 17.5747L54.4521 23.7551H47.7737L54.7743 11.8922L48.0373 0.497955H54.7157L58.1135 6.23902L61.5112 0.497955H68.1896L61.4526 11.9215L68.4239 23.7551Z" fill="#ffffff"></path>
	<path d="M76.3914 18.0141H84.3879V23.7551H70.416V0.497955H76.3621V18.0141H76.3914Z" fill="#ffffff"></path>
	<path d="M95.6061 0.497955C97.9787 0.497955 99.9412 1.25953 101.523 2.78267C103.105 4.30581 103.925 6.26831 103.925 8.6409C103.925 11.0135 103.134 12.976 101.523 14.4991C99.9119 16.0223 97.9787 16.7838 95.6061 16.7838H92.5013V23.7551H86.5552V0.497955H95.6061ZM95.6061 11.1306C96.9242 11.1306 97.9787 10.1055 97.9787 8.6409C97.9787 7.17634 96.9535 6.18044 95.6061 6.18044H92.5013V11.1306H95.6061Z" fill="#ffffff"></path>
	<path d="M118.366 23.7551L114.323 16.2566H112.185V23.7551H106.239V0.497955H115.554C117.926 0.497955 119.918 1.25953 121.5 2.78267C123.14 4.27651 123.931 6.20973 123.931 8.52373C123.931 11.3064 122.408 13.7668 119.977 15.1435L124.751 23.7551H118.366ZM112.185 5.9754V11.1892H115.466C116.93 11.2185 117.955 10.164 117.955 8.58231C117.955 7.00059 116.93 5.94611 115.466 5.94611H112.185V5.9754Z" fill="#ffffff"></path>
	<path d="M137.815 24.2531C134.388 24.2531 131.488 23.0814 129.145 20.7674C126.772 18.3948 125.63 15.5536 125.63 12.1265C125.63 8.69947 126.801 5.85823 129.145 3.51494C131.517 1.14235 134.388 0 137.815 0C141.242 0 144.083 1.17165 146.456 3.51494C148.828 5.82894 150 8.69947 150 12.1265C150 15.5536 148.799 18.4241 146.456 20.7674C144.083 23.1107 141.213 24.2531 137.815 24.2531ZM137.815 18.4534C139.602 18.4534 141.095 17.8676 142.296 16.696C143.497 15.495 144.083 13.9719 144.083 12.1558C144.083 10.3398 143.497 8.78735 142.296 7.64499C141.095 6.44405 139.602 5.85823 137.815 5.85823C136.028 5.85823 134.534 6.44405 133.333 7.64499C132.132 8.81664 131.546 10.3398 131.546 12.1558C131.546 13.9719 132.132 15.5243 133.333 16.696C134.505 17.8383 135.999 18.4534 137.815 18.4534Z" fill="#ffffff"></path>
	</g>
	<defs>
	<clipPath id="clip0">
	<rect width="150" height="24.2531" fill="white"></rect>
	</clipPath>
	</defs>
</svg>