<?xml version="1.0" encoding="utf-8"?>
<!-- Generator: Adobe Illustrator 22.1.0, SVG Export Plug-In . SVG Version: 6.00 Build 0)  -->
<svg version="1.1" id="Calque_1" xmlns="http://www.w3.org/2000/svg" xmlns:xlink="http://www.w3.org/1999/xlink" x="0px" y="0px"
	 viewBox="0 0 581.1 326" style="enable-background:new 0 0 581.1 326;" xml:space="preserve">
<style type="text/css">
	.st0{fill:#DB3832;}
	.st1{fill:#4E5152;}
</style>
<g>
	<g>
		<path class="st0" d="M111.3,166.5c-1.4-2.2-2.6-4.5-3.5-6.8c-1.1,2.1-2.4,4.4-4.1,6.7c1.4,1.4,2.8,3,3.9,4.6
			C108.6,169.4,109.9,167.8,111.3,166.5"/>
		<path class="st0" d="M58.9,200.8c1.9,3.2,3.6,6,9.7,8c7.9,2.5,16.3,5.8,18.8,6.8c0.6-1.1,1.3-2.2,2-3.2L73.7,181
			c-1.6,0.9-3.5,1.6-5.5,2.3c-2.7,0.9-5.8,1.9-8.5,3.8c-2.4,1.7-3.1,4.2-3.3,5.6c-0.4,2.1,0,4.2,0.8,5.4
			C57.8,199,58.4,199.9,58.9,200.8"/>
		<path class="st0" d="M103.7,203.3c0-5.7,0.1-18.9,0.2-22.6c0.1-2.6-4.8-11-11-12.9c-4-1.2-7.5,0.2-10.7,4.2
			c-0.6,0.7-1.1,1.4-1.6,2.1c-1.3,1.7-2.7,3.6-4.7,5.3l23.6,25.2C100.8,204.1,102.2,203.6,103.7,203.3"/>
		<path class="st0" d="M118.3,291.5c-1-0.3-2-0.6-2.9-0.9c-2-0.7-3.7-1.2-5.5-1.3l-0.5,0c0,0-0.1,0-0.1,0c-1.1,0-2.8,0.5-4.6,1.1
			c-3.1,0.9-6.8,2.1-11.2,2.1c-5.8,0-10.7-3.4-13.4-7.7c-11.8,1.8-17.9,7.7-18,7.8l-5.5-4.8c0.1-0.1,5.3-7,6.9-15.2
			c-2.3-0.1-4.6-0.7-6.8-1.8c-3.9-2.1-6.7-5.3-7.9-9.3c-1.3-4.2-1.3-8.2-1.3-11.4c0-1.9,0-3.7-0.3-4.7c0,0,0-0.1-0.1-0.1l-0.2-0.5
			c-0.7-1.7-1.7-3.2-2.9-4.9c-0.6-0.8-1.2-1.6-1.7-2.5c-4.4-6.8-4.6-13.8-0.5-19.7c0.3-0.4,0.6-0.7,0.9-1.1
			c-6.3-8.7-13.7-11.5-13.7-11.6l2.1-7c0.1,0,9.9,2.1,18.4-0.8c-0.3-1.8-0.4-3.8,0-5.8c0.7-4.3,3-8,6.3-10.4
			c3.6-2.5,7.4-3.8,10.4-4.8c1.8-0.6,3.5-1.2,4.4-1.8c0,0,0.1-0.1,0.1-0.1l0.4-0.3c1.5-1.2,2.6-2.6,3.8-4.3c0.6-0.8,1.2-1.6,1.8-2.4
			c3.9-4.8,8.7-7.3,13.7-7.3c1.6,0,3.2,0.2,4.8,0.7c0.9,0.3,1.9,0.7,2.8,1.2c6.3-8.5,6.8-16,6.8-16.1l7.3-0.1c0,0.1,0.8,9,5.3,16.2
			c1-0.5,2-0.9,3-1.2c1.6-0.5,3.2-0.7,4.8-0.7c0.1,0,0.2,0,0.4,0v-34.7H0v188.6h125.3v-21.7C123.1,292.5,120.7,292.2,118.3,291.5"/>
		<path class="st0" d="M122.3,167.9c-6.3,1.9-11.2,10.3-11,12.9c0.2,3.6,0.2,16.5,0.2,22.3c1.6,0.2,3.2,0.6,4.7,1.1l9.1-9.7v-26.9
			C124.3,167.4,123.3,167.5,122.3,167.9"/>
		<path class="st0" d="M115.4,249.5l-4.6,32.6c2.6,0.2,4.8,1,6.9,1.6c0.8,0.3,1.7,0.6,2.6,0.8c1.9,0.5,3.5,0.7,5.1,0.6v-30.9
			c-1.8-2.6-3.6-5.1-4.9-6.9C118.8,248.2,117.2,248.9,115.4,249.5"/>
		<path class="st0" d="M98.1,248.1c-2.3,3.3-6.2,9.1-10,14.2c-3.8,5.1-3.6,8.3-3.3,12.1c0.1,1.1,0.2,2.1,0.2,3.2
			c0,3,3.8,7.6,8.4,7.6c3.3,0,6.4-0.9,9.1-1.8c2-0.6,4-1.2,5.8-1.3l-4.8-32.1C101.5,249.5,99.7,248.9,98.1,248.1"/>
		<path class="st0" d="M88.1,239l-34,5.1c0.4,1.8,0.4,3.8,0.4,6c0,2.8,0,6.1,1,9.2c0.8,2.7,3.1,4.3,4.3,4.9c1.9,1,4,1.3,5.4,0.9
			c1-0.3,2-0.5,3.1-0.8c3.7-0.8,6.9-1.6,10.6-6.7c4.4-6.1,9.6-12.5,11.8-15.2C89.7,241.4,88.9,240.2,88.1,239"/>
		<path class="st0" d="M55.5,208.7c-1.2-1.4-2.1-2.9-2.8-4.2c-0.1-0.2-0.3-0.4-0.4-0.7c-3.1,1.1-6.4,1.7-9.4,2
			c1.7,1.7,3.5,3.6,5.3,6C50.4,210.5,53,209.4,55.5,208.7"/>
		<path class="st0" d="M125,226.7c0-9.1-7.4-16.5-16.5-16.5c-9.1,0-16.5,7.4-16.5,16.5s7.4,16.5,16.5,16.5
			C117.6,243.2,125,235.8,125,226.7"/>
		<path class="st0" d="M84.7,226.7c0-1.4,0.1-2.7,0.4-4c-5.2-1.7-18.3-6-21.8-7.4c-2.4-0.9-11.9,1.1-15.7,6.5
			c-2.4,3.4-2.1,7.2,0.7,11.5c0.5,0.8,1,1.5,1.5,2.2c1.2,1.7,2.6,3.7,3.6,6.1l31.4-14.7C84.7,226.8,84.7,226.8,84.7,226.7"/>
		<path class="st0" d="M77.4,274.9c-0.1-1.8-0.3-3.8,0-6.1c-2.3,1.3-4.6,2-6.6,2.4c-0.3,3.2-1.1,6.2-2.1,8.9c2.6-1,5.5-1.9,8.9-2.5
			c0-0.1,0-0.1,0-0.2C77.5,276.6,77.5,275.8,77.4,274.9"/>
	</g>
	<g>
		<path class="st0" d="M195.2,228.7c5.2,6.4,12.1,9.7,20.9,9.7c8.8,0,15.7-3.2,20.8-9.7c5.1-6.4,7.7-15.2,7.7-26.4v-76.8h31.1v77.8
			c0,20.2-5.6,35.7-16.7,46.5c-11.1,10.8-25.4,16.2-42.8,16.2c-17.4,0-31.7-5.4-42.9-16.3c-11.2-10.9-16.8-26.3-16.8-46.4v-77.8
			h31.1v76.8C187.4,213.5,190,222.3,195.2,228.7z"/>
		<path class="st0" d="M387,193.8h31.3v49.4c-13.8,15.4-32.9,23.1-57.3,23.1c-20.4,0-37.6-6.8-51.5-20.3
			c-13.9-13.5-20.8-30.6-20.8-51.3c0-20.6,7.1-37.9,21.2-51.7c14.1-13.8,31.2-20.7,51.2-20.7c20,0,37.3,6.6,52.1,19.7l-16.1,23.3
			c-6.2-5.4-12-9.2-17.2-11.2c-5.2-2.1-10.9-3.1-17-3.1c-11.8,0-21.8,4-29.9,12c-8.1,8-12.1,18.6-12.1,31.8
			c0,13.1,3.9,23.7,11.6,31.6c7.8,7.9,17,11.8,27.8,11.8c10.7,0,19.7-2.1,26.9-6.2V193.8z"/>
		<path class="st0" d="M543.8,264.6l-12.9-30.1h-58.3l-12.9,30.1h-33l60.1-139.1h30.1l60.1,139.1H543.8z M501.8,166.9l-17.5,40.4
			h34.8L501.8,166.9z"/>
	</g>
	<g>
		<path class="st1" d="M164.3,306.7c1.1,1.3,2.5,2,4.3,2s3.2-0.7,4.3-2c1-1.3,1.6-3.1,1.6-5.4v-15.7h6.4v15.9c0,4.1-1.1,7.3-3.4,9.5
			c-2.3,2.2-5.2,3.3-8.8,3.3s-6.5-1.1-8.8-3.3c-2.3-2.2-3.4-5.4-3.4-9.5v-15.9h6.4v15.7C162.7,303.6,163.2,305.4,164.3,306.7z"/>
		<path class="st1" d="M192.5,301.9v12.2h-6.1v-21.9h6.1v2.4c1.8-1.9,3.9-2.8,6.2-2.8c2.3,0,4.2,0.8,5.8,2.4
			c1.6,1.6,2.3,3.8,2.3,6.5v13.3h-6.1v-12.4c0-3.4-1.2-5.1-3.7-5.1c-1.2,0-2.3,0.4-3.2,1.3C193,298.9,192.5,300.2,192.5,301.9z"/>
		<path class="st1" d="M213,289.4c-0.7-0.7-1-1.5-1-2.5c0-1,0.3-1.9,1-2.5c0.7-0.7,1.5-1,2.5-1c1,0,1.9,0.3,2.5,1
			c0.7,0.7,1,1.5,1,2.5c0,1-0.3,1.9-1,2.5c-0.7,0.7-1.5,1-2.5,1C214.5,290.4,213.6,290.1,213,289.4z M218.6,314.1h-6.1v-21.9h6.1
			V314.1z"/>
		<path class="st1" d="M230.2,314.1l-8.7-22h6.4l5.5,13.8l5.5-13.8h6.4l-8.7,22H230.2z"/>
		<path class="st1" d="M247.3,313.4c-0.7-0.7-1-1.5-1-2.5c0-1,0.3-1.9,1-2.5c0.7-0.7,1.5-1,2.5-1c1,0,1.9,0.3,2.5,1
			c0.7,0.7,1,1.5,1,2.5c0,1-0.3,1.9-1,2.5c-0.7,0.7-1.5,1-2.5,1C248.8,314.4,248,314.1,247.3,313.4z"/>
		<path class="st1" d="M288.4,299.6h6.4v10.1c-2.8,3.2-6.7,4.7-11.7,4.7c-4.2,0-7.7-1.4-10.5-4.2s-4.3-6.3-4.3-10.5
			c0-4.2,1.4-7.7,4.3-10.6c2.9-2.8,6.4-4.2,10.5-4.2c4.1,0,7.6,1.3,10.7,4l-3.3,4.8c-1.3-1.1-2.5-1.9-3.5-2.3
			c-1.1-0.4-2.2-0.6-3.5-0.6c-2.4,0-4.5,0.8-6.1,2.5c-1.7,1.6-2.5,3.8-2.5,6.5c0,2.7,0.8,4.8,2.4,6.5c1.6,1.6,3.5,2.4,5.7,2.4
			c2.2,0,4-0.4,5.5-1.3V299.6z"/>
		<path class="st1" d="M311.4,297.6c-1.8,0-3.2,0.6-4.1,1.9c-0.9,1.3-1.3,3-1.3,5.1v9.5h-6.1v-21.9h6.1v2.9c0.8-0.9,1.8-1.7,3-2.3
			c1.2-0.6,2.4-0.9,3.6-1l0,5.7H311.4z"/>
		<path class="st1" d="M335.6,310.9c-2.5,2.3-5.4,3.5-8.7,3.5c-3.3,0-6.1-1-8.2-3.1c-2.2-2.1-3.3-4.8-3.3-8.2s1.1-6.2,3.3-8.2
			s4.8-3.1,7.8-3.1c3,0,5.6,0.9,7.7,2.7c2.1,1.8,3.2,4.3,3.2,7.5v3.3h-16c0.2,1.2,0.8,2.2,1.9,2.9c1.1,0.8,2.3,1.1,3.6,1.1
			c2.1,0,3.9-0.7,5.3-2.2L335.6,310.9z M329.8,297.9c-0.8-0.7-1.9-1.1-3.1-1.1c-1.2,0-2.3,0.4-3.3,1.1c-1,0.7-1.6,1.7-1.8,3h9.6
			C331.1,299.6,330.6,298.6,329.8,297.9z"/>
		<path class="st1" d="M347.9,301.9v12.2h-6.1v-21.9h6.1v2.4c1.8-1.9,3.9-2.8,6.2-2.8s4.2,0.8,5.8,2.4c1.6,1.6,2.3,3.8,2.3,6.5v13.3
			h-6.1v-12.4c0-3.4-1.2-5.1-3.7-5.1c-1.2,0-2.3,0.4-3.2,1.3C348.4,298.9,347.9,300.2,347.9,301.9z"/>
		<path class="st1" d="M389.8,303.1c0,3.2-1.1,5.9-3.3,8c-2.2,2.2-5,3.3-8.3,3.3c-3.3,0-6.1-1.1-8.3-3.3c-2.2-2.2-3.3-4.8-3.3-8
			s1.1-5.9,3.3-8c2.2-2.2,5-3.3,8.3-3.3c3.3,0,6.1,1.1,8.3,3.3C388.7,297.3,389.8,300,389.8,303.1z M372.7,303.1
			c0,1.8,0.5,3.3,1.5,4.4s2.3,1.7,3.9,1.7s2.9-0.6,3.9-1.7c1-1.1,1.5-2.6,1.5-4.4c0-1.8-0.5-3.3-1.5-4.4c-1-1.1-2.3-1.7-3.9-1.7
			s-2.9,0.6-3.9,1.7C373.2,299.9,372.7,301.3,372.7,303.1z"/>
		<path class="st1" d="M406.9,291.8c2.7,0,5,1,7,3.1c2,2.1,3,4.7,3,8c0,3.3-1,6-3.1,8.2c-2,2.2-4.4,3.3-6.9,3.3
			c-2.6,0-4.7-1.1-6.5-3.2v2.9h-6.1v-30.2h6.1v10.8C402.1,292.8,404.2,291.8,406.9,291.8z M400.3,303.2c0,1.8,0.5,3.2,1.5,4.4
			c1,1.1,2.2,1.7,3.6,1.7c1.4,0,2.6-0.6,3.7-1.7c1.1-1.1,1.6-2.6,1.6-4.3c0-1.8-0.5-3.2-1.5-4.4c-1-1.2-2.3-1.8-3.7-1.8
			c-1.4,0-2.7,0.6-3.6,1.8C400.8,299.9,400.3,301.4,400.3,303.2z"/>
		<path class="st1" d="M427.5,314.1h-6.1v-30.2h6.1V314.1z"/>
		<path class="st1" d="M452.3,310.9c-2.5,2.3-5.4,3.5-8.7,3.5c-3.3,0-6.1-1-8.2-3.1c-2.2-2.1-3.3-4.8-3.3-8.2s1.1-6.2,3.3-8.2
			c2.2-2,4.8-3.1,7.8-3.1c3,0,5.6,0.9,7.7,2.7c2.1,1.8,3.2,4.3,3.2,7.5v3.3h-16c0.2,1.2,0.8,2.2,1.9,2.9c1.1,0.8,2.3,1.1,3.6,1.1
			c2.1,0,3.9-0.7,5.3-2.2L452.3,310.9z M446.4,297.9c-0.8-0.7-1.9-1.1-3.1-1.1c-1.2,0-2.3,0.4-3.3,1.1s-1.6,1.7-1.8,3h9.6
			C447.7,299.6,447.3,298.6,446.4,297.9z"/>
		<path class="st1" d="M490.1,314.1l-2.6-6.2h-11.9l-2.6,6.2h-6.8l12.3-28.5h6.2l12.3,28.5H490.1z M481.5,294.1l-3.6,8.3h7.1
			L481.5,294.1z"/>
		<path class="st1" d="M505.7,314.1h-6.1v-30.2h6.1V314.1z"/>
		<path class="st1" d="M524.2,291.8c2.6,0,4.8,1.1,6.8,3.2c2,2.1,3,4.8,3,8c0,3.2-1,5.9-3,8.1c-2,2.2-4.3,3.3-7,3.3
			c-2.7,0-4.8-1.1-6.5-3.2V322h-6.1v-29.8h6.1v2.4C519.4,292.8,521.7,291.8,524.2,291.8z M517.5,303.2c0,1.8,0.5,3.2,1.5,4.4
			c1,1.1,2.2,1.7,3.6,1.7c1.4,0,2.6-0.6,3.7-1.7c1.1-1.1,1.6-2.6,1.6-4.3c0-1.8-0.5-3.2-1.5-4.4c-1-1.2-2.3-1.8-3.7-1.8
			s-2.7,0.6-3.6,1.8C518,299.9,517.5,301.4,517.5,303.2z"/>
		<path class="st1" d="M557.6,310.9c-2.5,2.3-5.4,3.5-8.7,3.5c-3.3,0-6.1-1-8.2-3.1c-2.2-2.1-3.3-4.8-3.3-8.2s1.1-6.2,3.3-8.2
			c2.2-2,4.8-3.1,7.8-3.1c3,0,5.6,0.9,7.7,2.7c2.1,1.8,3.2,4.3,3.2,7.5v3.3h-16c0.2,1.2,0.8,2.2,1.9,2.9c1.1,0.8,2.3,1.1,3.6,1.1
			c2.1,0,3.9-0.7,5.3-2.2L557.6,310.9z M551.7,297.9c-0.8-0.7-1.9-1.1-3.1-1.1c-1.2,0-2.3,0.4-3.3,1.1s-1.6,1.7-1.8,3h9.6
			C553,299.6,552.5,298.6,551.7,297.9z"/>
		<path class="st1" d="M580.3,307.3c0,2.2-0.8,3.9-2.4,5.2c-1.6,1.3-3.6,2-6,2c-1.6,0-3.3-0.3-5.1-0.9c-1.8-0.6-3.4-1.4-4.8-2.6
			l2.7-3.8c2.3,1.8,4.7,2.6,7.3,2.6c0.8,0,1.4-0.2,1.9-0.5c0.5-0.3,0.7-0.7,0.7-1.2c0-0.5-0.3-1-1-1.4c-0.6-0.4-1.6-0.8-2.8-1.2
			c-1.2-0.4-2.1-0.7-2.8-1c-0.6-0.3-1.4-0.7-2.2-1.2c-1.7-1-2.5-2.6-2.5-4.6c0-2,0.8-3.7,2.4-4.9c1.6-1.3,3.7-1.9,6.3-1.9
			c2.6,0,5.2,0.9,7.7,2.6l-2.3,4.1c-1.9-1.3-3.8-2-5.7-2c-1.9,0-2.8,0.5-2.8,1.5c0,0.6,0.3,1,0.9,1.3s1.6,0.7,3,1.1
			c1.4,0.4,2.4,0.8,3,1c0.6,0.2,1.3,0.6,2.1,1.1C579.5,303.6,580.3,305.1,580.3,307.3z"/>
	</g>
	<rect x="0" y="0.5" class="st1" width="125.3" height="125"/>
</g>
</svg>
