<svg xmlns="http://www.w3.org/2000/svg" viewBox="0 0 486.78 99.26"><defs><style>.cls-1{fill:red;}</style></defs><title>Ресурс 1</title><g id="Слой_2" data-name="Слой 2"><g id="Слой_1-2" data-name="Слой 1"><path class="cls-1" d="M193.44,67.58v17H181.57v-17C164.9,62.93,158.06,55.26,158.47,42c.4-13.06,7.76-20.85,23-24.06V.84h11.82V18.08c7.52,1,13.92,3.53,18.42,9.59a24.46,24.46,0,0,1,4.68,15C216.4,55.89,210.07,62.81,193.44,67.58Zm.18-37.87v26c6.86-.45,11-5.89,10.78-13.91C204.21,34.94,199.6,29.74,193.62,29.71Zm-12.25-.18c-7.05.68-11.38,6.5-10.9,14.29.42,6.83,5.1,12,10.9,11.78Z"/><path class="cls-1" d="M287.53.81h43.1V12.32H300V26c3.78,0,7.48-.15,11.17,0a55.65,55.65,0,0,1,11,1.21c9.29,2.44,14.13,9.62,13.67,19.48-.49,10.38-5.6,16.77-15.24,18.57a60.07,60.07,0,0,1-10.22.71c-7.56.1-15.11,0-22.89,0ZM299.94,54c5.8,0,11.34.42,16.79-.13,4.38-.44,6.6-3.82,6.57-8.09s-2.43-7.69-6.68-8.08c-5.46-.49-11-.12-16.68-.12Z"/><path class="cls-1" d="M62.26,66.07c-4.4,0-8.33.1-12.24-.09a3.2,3.2,0,0,1-2.1-1.87c-1.09-2.92-2-5.92-2.82-8.92-.49-1.77-1.25-2.62-3.31-2.58-6.94.14-13.89.11-20.84,0-1.7,0-2.54.5-3,2.14-.94,3.18-2,6.34-3.21,9.42A3.18,3.18,0,0,1,12.53,66c-3.6.19-7.22.09-11.21.09.42-1.43.7-2.55,1.09-3.65q9.09-25.9,18.22-51.81c.4-1.14.82-2.27,1.29-3.38C24.18,1.9,27.07,0,32.54,0c5.17.05,8.15,2,10.05,7.52,4.39,12.64,8.57,25.35,12.83,38C57.65,52.22,59.87,58.89,62.26,66.07ZM22.57,41.22h18c-2.9-9.06-5.69-17.76-8.47-26.46l-.7.12C28.5,23.58,25.57,32.28,22.57,41.22Z"/><path class="cls-1" d="M264.66,65.59c-6.24,1.16-9.87.08-13.88-4.14-3.73,4.29-8.54,6-14.16,5.76-11.39-.43-18.7-10.9-15-21.7,2-5.83,6.58-8.62,12.39-9.08,5.1-.4,10.25-.08,15.3-.08.58-3.87-.7-6.49-3.42-7.69-3.6-1.58-8.79-.72-10.81,2.15A19.68,19.68,0,0,0,234,32.62s-8.91.09-11.93.09c.76-7.76,6.12-13.52,14.32-14.85a33.83,33.83,0,0,1,11.09,0c8.82,1.55,13.76,8,14.07,17.77.16,5,0,10.08.06,15.12,0,1.92-.3,3.48,1.46,4.58a4.56,4.56,0,0,0,1.48.15s0,1.22,0,1.45C264.7,59.85,264.66,62.75,264.66,65.59Zm-15.21-20c-4,0-7.82-.24-11.59.08-3.24.27-4.83,2.23-4.94,5.08A5.88,5.88,0,0,0,237.6,57C245.49,59,250.75,54.06,249.45,45.62Z"/><path class="cls-1" d="M384.83,65.59c-6.24,1.16-9.87.08-13.88-4.14-3.72,4.29-8.54,6-14.16,5.76-11.39-.43-18.7-10.9-15-21.7,2-5.83,6.58-8.62,12.39-9.08,5.1-.4,10.25-.08,15.3-.08.58-3.87-.7-6.49-3.42-7.69-3.6-1.58-8.79-.72-10.81,2.15a19.68,19.68,0,0,0-1.07,1.81s-8.91.09-11.93.09C343,25,348.4,19.19,356.6,17.86a33.83,33.83,0,0,1,11.09,0c8.82,1.55,13.76,8,14.07,17.77.16,5,0,10.08.06,15.12,0,1.92-.3,3.48,1.46,4.58a4.56,4.56,0,0,0,1.48.15s0,1.22,0,1.45C384.87,59.85,384.83,62.75,384.83,65.59Zm-15.21-20c-4,0-7.82-.24-11.59.08-3.24.27-4.83,2.23-4.94,5.08A5.88,5.88,0,0,0,357.77,57C365.66,59,370.92,54.06,369.62,45.62Z"/><path class="cls-1" d="M420.81,47.76H403.94V65.87H392.21V19.57h11.61V36.88c5.35,0,10.36.08,15.36-.12.56,0,1.47-1.65,1.5-2.55.15-4.81.07-9.63.07-14.65h11.53V65.81H420.81Z"/><path class="cls-1" d="M72.09,19.49h34v46.4H94.47V30.23H82.15c0,5,.07,9.92,0,14.82a76.6,76.6,0,0,1-.66,8.43C80.22,62.86,74.8,67,64.84,65.77V55.07c5.36-.26,6-2,6.32-8.46.33-8,.49-15.92.74-23.88C71.93,21.66,72,20.6,72.09,19.49Z"/><path class="cls-1" d="M442.24,19.49h11.35V37.81c1.19-1.09,1.85-1.6,2.39-2.2l14.57-16.27h14.72L465.16,41.6,486.78,66c-5.34,0-10.09.07-14.82-.08-.69,0-1.4-1.05-2-1.7-5.19-5.74-10.35-11.5-16.1-17.9V65.81H442.24Z"/><path class="cls-1" d="M127.47,33.86c4.55,0,8.59-.32,12.57.07,9.39.92,14.29,6.89,14.06,16.62-.2,8.66-6.22,15-15,15.39-7,.28-14.09.08-21.13.15-1.49,0-2.22-.41-2.21-2,.05-14.49.09-44.51.09-44.51h11.64Zm.25,9.81V55.76c3.47,0,6.71.23,9.89-.07,3-.28,4.49-2.54,4.52-5.81s-1.28-5.27-4.24-5.68C134.56,43.75,131.15,43.82,127.72,43.67Z"/><path class="cls-1" d="M0,86.63H63.69V99.26H0Z"/></g></g></svg>