<svg xmlns="http://www.w3.org/2000/svg" viewBox="0 0 291.57 291.57"><defs><style>.cls-1{fill:#ff9e14;}.cls-2{fill:#ffb514;}.cls-3{fill:#fff;}</style></defs><title>Ресурс 1</title><g id="Слой_2" data-name="Слой 2"><g id="Слой_1-2" data-name="Слой 1"><path class="cls-1" d="M291.57,145.79A145.79,145.79,0,0,1,0,145.79q0-4.23.24-8.39a145.79,145.79,0,0,1,291.09,0Q291.57,141.55,291.57,145.79Z"/><path class="cls-2" d="M291.33,137.4c-42.61,12.95-92.38,20.39-145.55,20.39S42.85,150.35.24,137.4a145.79,145.79,0,0,1,291.09,0Z"/><path class="cls-3" d="M207.51,93.13s3.64-52.8-65-53.82S81.7,92.68,84.25,97.79s7.32,19.66,45.11,27.49,76.4,16.83,93.45,34c17.7,17.87,18.16,54.68,3.27,76.38-14.7,21.42-48.21,33.07-77.83,32.21s-85.61-6.8-94.47-71V184.08l20.9,0s-3.7,66.17,72.55,65.15,67.58-52.77,67.58-52.77S217,166,162.24,154.9c-40.5-8.19-90.06-16.53-99.26-52.77C54,66.55,75.55,42.29,88.34,33.87,101.78,25,119.15,19.4,144,20.42s81.66,5.24,85.07,72.82Z"/></g></g></svg>